<?xml version="1.0" encoding="iso-8859-1"?>
<!-- Generator: Adobe Illustrator 19.0.0, SVG Export Plug-In . SVG Version: 6.00 Build 0)  -->
<svg version="1.1" id="Capa_1" xmlns="http://www.w3.org/2000/svg" xmlns:xlink="http://www.w3.org/1999/xlink" x="0px" y="0px"
	 viewBox="0 0 512 512" style="enable-background:new 0 0 512 512;" xml:space="preserve">
<g>
	<circle style="fill:#E6E6E6;" cx="90" cy="323.5" r="80"/>
	<circle style="fill:#E6E6E6;" cx="422" cy="323.5" r="80"/>
</g>
<circle style="fill:#6E6E6E;" cx="256" cy="323.5" r="25"/>
<path d="M422,233.5c-5.198,0-10.292,0.449-15.251,1.299L386.78,165.79c0,0,29.862-52.265,29.899-52.33
	c3.737-6.54-1.157-14.96-8.68-14.96h-66c-5.51,0-10,4.489-10,10c0,5.51,4.49,10,10.02,10h48.75l-20.57,36H255.59
	c-19.58,0-38.06,2.359-54.91,7l-10.469-25.65c6.873-1.159,13.368-3.323,19.408-6.479c10.997-5.748,2.215-23.711-9.239-17.741
	c-6.74,3.5-14.06,5.21-22.39,5.22h-0.05c-8.67,0-18.64-1.95-29.65-5.79c-5.048-1.761-10.917,0.946-12.73,6.15
	c-1.794,5.152,1.01,10.943,6.15,12.73c9.718,3.386,18.657,5.489,27.091,6.391l12.909,31.629c-18.01,7.37-34.01,17.75-47.54,30.85
	c-10.742,10.366-20.115,22.518-27.95,36.158c-5.263-0.962-10.684-1.468-16.22-1.468c-49.626,0-90,40.374-90,90s40.374,90,90,90
	c46.246,0,84.451-35.063,89.441-80h43.022c4.314,14.44,17.712,25,33.537,25c19.299,0,35-15.701,35-35
	c0-7.754-2.539-14.925-6.823-20.732l87.767-116.292l15.591,53.889C354.962,253.919,332,286.077,332,323.5c0,49.626,40.374,90,90,90
	c49.626,0,90-40.374,90-90S471.626,233.5,422,233.5z M130,333.5h29.274c-4.869,33.876-34.072,60-69.274,60
	c-38.598,0-70-31.402-70-70s31.402-70,70-70c2.288,0,4.548,0.119,6.78,0.334c-3.613,8.365-6.732,17.165-9.31,26.305
	c-3.474,12.315,15.735,17.882,19.25,5.421c2.223-7.917,5.374-17.156,9.785-26.833c22.529,9.253,39.198,29.922,42.769,54.773H130
	c-5.523,0-10,4.478-10,10S124.477,333.5,130,333.5z M222.463,313.5h-43.022c-3.614-32.54-24.644-59.897-53.534-72.518
	c5.885-9.608,13.159-19.134,22.142-27.772c11.94-11.45,25.81-20.45,41.21-26.761l44.814,109.798
	C228.624,300.641,224.516,306.629,222.463,313.5z M256,338.5c-8.271,0-15-6.729-15-15s6.729-15,15-15c8.271,0,15,6.729,15,15
	S264.271,338.5,256,338.5z M268.22,290.705c0.247-0.385-15.792-2.411-15.639-2.036C252.58,288.665,208.3,180.16,208.3,180.16
	c14.46-3.721,30.51-5.631,47.7-5.66h99.92C355.92,174.5,268.232,290.689,268.22,290.705z M422,393.5c-38.598,0-70-31.402-70-70
	c0-28.312,16.906-52.734,41.144-63.75c0,0,7.836,27.085,7.846,27.12c1.478,5.107,7.157,8.333,12.389,6.84
	c5.222-1.49,8.321-7.215,6.831-12.391l-7.853-27.139c3.155-0.437,6.37-0.68,9.643-0.68c38.598,0,70,31.402,70,70
	S460.598,393.5,422,393.5z"/>
<circle cx="90" cy="322.5" r="10"/>
<circle cx="422" cy="323.5" r="10"/>
<g>
</g>
<g>
</g>
<g>
</g>
<g>
</g>
<g>
</g>
<g>
</g>
<g>
</g>
<g>
</g>
<g>
</g>
<g>
</g>
<g>
</g>
<g>
</g>
<g>
</g>
<g>
</g>
<g>
</g>
</svg>
